# xmcd CD database file
#
# Track frame offsets:
#	150
#	6658
#	19238
#	32985
#	47640
#	61248
#	75258
#	95695
#	113490
#	140728
#	162940
#	184133
#	209225
#
# Disc length: 3151 seconds
#
# Revision: 0
# Processed by: cddbd v1.5.2PL0 Copyright (c) Steve Scherf et al.
# Submitted via: CDex 1.70beta3
#
DISCID=b50c4d0d
DTITLE=松本英彦 - スリーピー・アット・ザ・ヴィデオ
DYEAR=1959
DGENRE=Jazz
TTITLE0=ハーレム・ノクターン
TTITLE1=エターナリー
TTITLE2=アイ・ガット・リズム
TTITLE3=テンダリー
TTITLE4=捧ぐるは愛のみ
TTITLE5=ボディ・アンド・ソウル
TTITLE6=フラミンゴ
TTITLE7=ウォーキング
TTITLE8=ジャングル・ドラムス
TTITLE9=チェロキー
TTITLE10=今宵のきみは
TTITLE11=四月の思い出
TTITLE12=スイート・ジョージア・ブラウン
EXTD=YEAR: 1959
EXTT0=
EXTT1=
EXTT2=
EXTT3=
EXTT4=
EXTT5=
EXTT6=
EXTT7=
EXTT8=
EXTT9=
EXTT10=
EXTT11=
EXTT12=
PLAYORDER=
